<svg width="39" height="39" viewBox="0 0 39 39" fill="none" xmlns="http://www.w3.org/2000/svg">
<g clip-path="url(#clip0_1793_6129)">
<path d="M38.0559 26.3916H37.7202C36.965 26.3916 36.2727 26.7692 35.7692 27.3356C35.0139 28.1748 33.965 28.7202 32.8111 28.7202C30.4615 28.7202 28.5734 26.5804 28.5734 23.937C28.5734 21.2937 30.4615 19.1538 32.8111 19.1538C33.965 19.1538 35.0139 19.6783 35.7692 20.5384C36.2727 21.1049 36.965 21.4825 37.7202 21.4825H38.0559C38.1188 19.6154 38.2027 17.7692 38.3916 15.9021L38.979 10.007L37.8251 8.85311L31.93 9.44053C30.0839 9.62934 28.2167 9.73423 26.3496 9.77619V9.10486C26.3496 8.34962 26.7272 7.65731 27.2937 7.15381C28.1328 6.39857 28.6783 5.34962 28.6783 4.19577C28.6783 1.84612 26.5384 -0.0419922 23.8951 -0.0419922C21.2517 -0.0419922 19.1118 1.84612 19.1118 4.19577C19.1118 5.34962 19.6363 6.39857 20.4965 7.15381C21.0629 7.65731 21.4405 8.34962 21.4405 9.10486V9.77619C19.5734 9.71325 17.7272 9.62934 15.8601 9.44053L9.96498 8.85311C9.50345 9.31465 9.29366 9.52444 8.81114 10.007L9.39855 15.9021C9.58736 17.7482 9.69226 19.6154 9.73421 21.4825H9.08387C8.32862 21.4825 7.63631 21.1049 7.13282 20.5384C6.37757 19.6993 5.32862 19.1538 4.17477 19.1538C1.82512 19.1538 -0.0629883 21.2937 -0.0629883 23.937C-0.0629883 26.5804 1.82512 28.7202 4.17477 28.7202C5.32862 28.7202 6.37757 28.1958 7.13282 27.3356C7.63631 26.7692 8.32862 26.3916 9.08387 26.3916H9.73421C9.67128 28.2587 9.58736 30.1049 9.39855 31.972L8.81114 37.8671C9.27268 38.3286 9.48247 38.5384 9.96498 39.0209L15.8601 38.4335C17.7062 38.2447 19.5734 38.1398 21.4405 38.0979V37.6573C21.4405 36.9021 21.0629 36.2098 20.4965 35.7063C19.6573 34.951 19.1118 33.9021 19.1118 32.7482C19.1118 30.3986 21.2517 28.5105 23.8951 28.5105C26.5384 28.5105 28.6783 30.3986 28.6783 32.7482C28.6783 33.9021 28.1538 34.951 27.2937 35.7063C26.7272 36.2098 26.3496 36.9021 26.3496 37.6573V38.0979C28.2167 38.1608 30.0629 38.2447 31.93 38.4335L37.8251 39.0209C38.2867 38.5594 38.4965 38.3496 38.979 37.8671L38.3916 31.972C38.2027 30.1258 38.0979 28.2587 38.0559 26.3916Z" fill="url(#paint0_linear_1793_6129)"/>
</g>
<defs>
<linearGradient id="paint0_linear_1793_6129" x1="19.463" y1="-0.0419922" x2="19.463" y2="39.0209" gradientUnits="userSpaceOnUse">
<stop stop-color="#EAE4FF"/>
<stop offset="1" stop-color="#FFFFBC"/>
</linearGradient>
<clipPath id="clip0_1793_6129">
<rect width="39" height="39" fill="white"/>
</clipPath>
</defs>
</svg>
