<svg width="36" height="44" viewBox="0 0 36 44" fill="none" xmlns="http://www.w3.org/2000/svg">
<g clip-path="url(#clip0_1793_2503)">
<path d="M0 44.0002L2.88345 39.3492C3.10791 38.312 3.17698 37.2747 3.12518 36.1705C2.96978 32.7911 3.53957 29.4952 5.57698 26.2329C5.99137 27.0359 6.31942 27.6884 6.66475 28.3576C6.16403 24.677 6.87194 21.3142 9.7554 18.2192C10.0662 19.3401 10.3424 20.3104 10.6187 21.2808C10.7396 21.2641 10.8604 21.2306 10.9813 21.2139C10.964 20.2435 10.8259 19.2732 10.9295 18.3028C11.0331 17.4496 11.223 16.5295 11.6719 15.7766C13.1914 13.3006 15.2806 11.2428 17.8705 9.30208C18.095 10.0382 18.2504 10.607 18.423 11.1758C18.5439 11.1257 18.6993 11.1089 18.6993 11.0755C18.6993 7.91348 20.9094 5.98953 23.6029 4.36672C27.1424 2.25873 31.0101 0.953788 34.9986 0.0336356C35.7583 -0.150395 36.2935 0.619187 35.8101 1.18801C34.4978 2.71044 33.1856 4.21615 32.1496 5.85569C30.941 7.74618 30.0777 9.67014 27.4187 10.2724C26.8662 10.3895 26.4173 10.9751 26.0201 11.5774C26.9007 11.3766 27.7813 11.1591 28.9727 10.8914C27.7295 13.2838 26.6763 15.4253 25.5367 17.5333C24.7252 19.0557 22.895 19.223 21.4791 19.9424C21.0993 20.1264 20.6849 20.2435 20.2878 20.3941C20.305 20.4945 20.3223 20.6116 20.3568 20.712C21.3928 20.5279 22.446 20.3272 23.7583 20.093C21.3065 23.9241 20.2014 28.5249 14.2101 29.3279C14.918 29.4618 15.6432 29.5789 16.5065 29.7295C13.7266 32.9416 10.6705 35.7523 6.82014 37.7431C6.64748 37.8268 6.50935 37.9272 6.35396 38.0276L4.88633 40.0017L3.07338 42.9295L0.0172662 44.0336L0 44.0002Z" fill="url(#paint0_linear_1793_2503)"/>
</g>
<defs>
<linearGradient id="paint0_linear_1793_2503" x1="18.0019" y1="0.00585938" x2="18.0019" y2="44.0336" gradientUnits="userSpaceOnUse">
<stop stop-color="#EAE4FF"/>
<stop offset="1" stop-color="#FFFFBC"/>
</linearGradient>
<clipPath id="clip0_1793_2503">
<rect width="36" height="44" fill="white"/>
</clipPath>
</defs>
</svg>
